<?xml version="1.0" standalone="no"?>
<!DOCTYPE svg PUBLIC "-//W3C//DTD SVG 20010904//EN"
 "http://www.w3.org/TR/2001/REC-SVG-20010904/DTD/svg10.dtd">
<svg version="1.0" xmlns="http://www.w3.org/2000/svg"
 width="358.000000pt" height="358.000000pt" viewBox="0 0 358.000000 358.000000"
 preserveAspectRatio="xMidYMid meet">
<metadata>
Created by potrace 1.11, written by Peter Selinger 2001-2013
</metadata>
<g transform="translate(0.000000,358.000000) scale(0.100000,-0.100000)"
fill="#000000" stroke="none">
<path d="M700 2642 l0 -168 63 -62 63 -62 177 0 177 0 0 -474 c0 -306 -4 -477
-10 -481 -5 -3 -10 -15 -10 -27 0 -70 -152 -218 -224 -218 -8 0 -18 -4 -21
-10 -8 -13 -142 -13 -150 0 -3 6 -13 10 -22 10 -32 0 -90 35 -145 89 -32 30
-58 61 -58 69 0 7 -7 15 -15 18 -16 6 -75 -16 -75 -28 0 -5 -5 -8 -11 -8 -15
0 -118 -50 -124 -60 -3 -4 -26 -18 -53 -31 -26 -12 -49 -24 -51 -26 -2 -1 15
-25 37 -52 23 -27 42 -53 42 -58 0 -11 133 -143 144 -143 4 0 34 -25 66 -56
32 -31 69 -64 82 -72 51 -36 175 -93 216 -99 23 -3 45 -10 48 -14 7 -12 211
-12 218 0 3 4 29 11 58 14 52 6 108 26 108 39 0 3 13 9 29 13 16 3 35 13 42
21 6 8 16 14 21 14 10 0 182 171 192 191 3 8 17 32 31 54 13 22 24 48 25 58 0
18 6 33 31 77 12 21 15 153 17 777 l3 752 -62 60 -62 61 -399 0 -398 0 0 -168z
m760 -582 c0 -391 -4 -700 -9 -700 -5 0 -11 -23 -15 -51 -4 -28 -11 -58 -15
-67 -5 -10 -15 -30 -22 -47 -7 -16 -26 -46 -41 -66 -15 -20 -28 -41 -28 -45 0
-13 -103 -114 -115 -114 -7 0 -22 -11 -34 -24 -25 -27 -118 -76 -144 -76 -9 0
-19 -4 -22 -10 -3 -5 -24 -10 -46 -10 -21 0 -39 -4 -39 -10 0 -6 -38 -10 -94
-10 -53 0 -98 4 -101 10 -3 6 -23 10 -43 10 -20 0 -46 7 -56 15 -11 8 -30 15
-43 15 -13 0 -23 4 -23 9 0 5 -8 11 -17 15 -10 3 -30 14 -44 23 -14 10 -39 27
-55 38 -16 11 -47 39 -69 62 -89 95 -106 131 -67 148 12 5 22 13 22 17 0 5 5
8 11 8 15 0 83 32 90 42 12 18 61 13 73 -6 15 -26 59 -71 76 -79 8 -4 33 -18
55 -32 22 -13 55 -24 73 -25 17 0 32 -4 32 -10 0 -13 157 -13 164 -1 4 5 25
12 49 16 23 4 49 16 58 26 9 11 20 19 25 19 14 0 114 103 114 117 0 7 4 13 9
13 5 0 12 10 16 23 7 24 22 61 36 89 5 10 9 265 9 568 l0 550 -240 0 -240 0 0
125 0 125 355 0 355 0 0 -700z"/>
<path d="M1650 2632 l0 -168 63 -62 63 -62 242 0 242 0 0 -753 0 -753 63 -62
63 -62 162 0 162 0 0 815 0 815 300 0 300 0 0 173 0 173 -58 57 -58 57 -772 0
-772 0 0 -168z m1500 -7 l0 -125 -305 0 -305 0 0 -815 0 -816 -112 3 -113 3
-3 812 -2 813 -303 2 -302 3 -3 123 -3 122 726 0 725 0 0 -125z"/>
</g>
</svg>
